<svg xmlns="http://www.w3.org/2000/svg" viewBox="0 0 424.63 232.53"><defs><style>.cls-1,.cls-2{fill:#344857;}.cls-2{stroke:#aa5c27;stroke-miterlimit:10;stroke-width:4px;}.cls-3{font-size:39.15px;fill:#fff;font-family:Comfortaa-Regular, Comfortaa;}.cls-4{letter-spacing:-0.11em;}.cls-5{letter-spacing:0em;}</style></defs><title>Asset 3</title><g id="Layer_2" data-name="Layer 2"><g id="Layer_1-2" data-name="Layer 1"><path class="cls-1" d="M293.46,83l-37.6-13.37a3.34,3.34,0,0,1-1.9-4.59L271.1,29a3.34,3.34,0,0,0-4.46-4.46l-36,17.13a3.34,3.34,0,0,1-4.59-1.9L212.64,2.22a3.34,3.34,0,0,0-6.3,0L193,39.82a3.34,3.34,0,0,1-4.59,1.9l-36-17.13A3.34,3.34,0,0,0,147.88,29l17.13,36a3.34,3.34,0,0,1-1.9,4.59L125.51,83a3.34,3.34,0,0,0,0,6.3l37.6,13.37a3.34,3.34,0,0,1,1.9,4.59l-17.13,36a3.34,3.34,0,0,0,4.46,4.46l36-17.13a3.34,3.34,0,0,1,4.59,1.9l13.37,37.6a3.34,3.34,0,0,0,6.3,0L226,132.57a3.34,3.34,0,0,1,4.59-1.9l36,17.13a3.34,3.34,0,0,0,4.46-4.46l-17.13-36a3.34,3.34,0,0,1,1.9-4.59l37.6-13.37A3.34,3.34,0,0,0,293.46,83ZM209.71,112A26.09,26.09,0,1,1,235.8,85.87,26.09,26.09,0,0,1,209.71,112Z"/><rect class="cls-2" x="204.11" y="78.15" width="100.18" height="15.79" rx="4.41" ry="4.41"/><text class="cls-3" transform="translate(0 221.21)">GiddyUp <tspan class="cls-4" x="189.41" y="0">W</tspan><tspan class="cls-5" x="221.83" y="0">eb Design</tspan></text></g></g></svg>