<svg xmlns="http://www.w3.org/2000/svg" viewBox="0 0 521.14 341.81"><defs><style>.cls-1{fill:#aa5c27;}.cls-2,.cls-3{fill:#344857;}.cls-3{stroke:#aa5c27;stroke-miterlimit:10;stroke-width:4px;}.cls-4{font-size:39.15px;fill:#fff;font-family:Comfortaa-Regular, Comfortaa;}.cls-5{letter-spacing:-0.11em;}.cls-6{letter-spacing:0em;}</style></defs><title>Asset 2</title><g id="Layer_2" data-name="Layer 2"><g id="Layer_1-2" data-name="Layer 1"><rect class="cls-1" width="521.14" height="341.81" rx="12" ry="12"/><path class="cls-2" d="M338,139.38,300.38,126a3.34,3.34,0,0,1-1.9-4.59l17.13-36a3.34,3.34,0,0,0-4.46-4.46l-36,17.13a3.34,3.34,0,0,1-4.59-1.9l-13.37-37.6a3.34,3.34,0,0,0-6.3,0l-13.37,37.6a3.34,3.34,0,0,1-4.59,1.9l-36-17.13a3.34,3.34,0,0,0-4.46,4.46l17.13,36a3.34,3.34,0,0,1-1.9,4.59L170,139.38a3.34,3.34,0,0,0,0,6.3l37.6,13.37a3.34,3.34,0,0,1,1.9,4.59l-17.13,36a3.34,3.34,0,0,0,4.46,4.46l36-17.13a3.34,3.34,0,0,1,4.59,1.9l13.37,37.6a3.34,3.34,0,0,0,6.3,0l13.37-37.6a3.34,3.34,0,0,1,4.59-1.9l36,17.13a3.34,3.34,0,0,0,4.46-4.46l-17.13-36a3.34,3.34,0,0,1,1.9-4.59L338,145.68A3.34,3.34,0,0,0,338,139.38ZM254.23,168.3a26.09,26.09,0,1,1,26.09-26.09A26.09,26.09,0,0,1,254.23,168.3Z"/><rect class="cls-3" x="248.63" y="134.48" width="100.18" height="15.79" rx="4.41" ry="4.41"/><text class="cls-4" transform="translate(44.52 277.54)">GiddyUp <tspan class="cls-5" x="189.41" y="0">W</tspan><tspan class="cls-6" x="221.83" y="0">eb Design</tspan></text></g></g></svg>