<svg xmlns="http://www.w3.org/2000/svg" viewBox="0 0 1505.85 481.36"><defs><style>.cls-1{fill:#344857;}.cls-2{fill:none;stroke:#344857;stroke-width:12px;}.cls-2,.cls-4{stroke-miterlimit:10;}.cls-3,.cls-4,.cls-5{fill:#aa5c27;}.cls-4{font-size:291.78px;stroke:#fff;stroke-width:7px;}.cls-4,.cls-5{font-family:Corbel-Bold, Corbel;font-weight:700;}.cls-5{font-size:179.16px;}</style></defs><title>Asset 21</title><g id="Layer_2" data-name="Layer 2"><g id="Layer_1-2" data-name="Layer 1"><path class="cls-1" d="M184.66,261.2a66.57,66.57,0,1,1,61.19-92.82h74.23l17-5.51,31.33-24.64a3.59,3.59,0,0,0-1.8-5.91c-10-2.45-40.71-4.4-40.88-4.37l-46,14.93a8.93,8.93,0,0,1-10.3-3.74A99.72,99.72,0,0,0,262.07,129l3.88,5.71c1.09,1.52,2.15,3.06,3.15,4.64l-3.15-4.64q-2-2.78-4.18-5.43a8.93,8.93,0,0,1-.37-10.95l28.44-39.14,10.86-38.35a3.59,3.59,0,0,0-4.93-3.72C286.27,41,260.26,57.48,260.13,57.6l-28.4,39.1a8.93,8.93,0,0,1-10.53,3,99.75,99.75,0,0,0-11.94-3.89l6.5,2.34c1.77.59,3.53,1.21,5.28,1.9l-5.28-1.9c-2.17-.72-4.36-1.37-6.57-1.93a8.93,8.93,0,0,1-6.73-8.64V39.23L188.7,1.81a3.59,3.59,0,0,0-6.18-.11c-5.41,8.73-16.76,37.36-16.79,37.53V87.55A8.93,8.93,0,0,1,159,96.2a99.72,99.72,0,0,0-11.94,3.87l6.63-1.93c1.78-.57,3.57-1.1,5.39-1.57l-5.39,1.57q-3.26,1-6.45,2.3a8.93,8.93,0,0,1-10.52-3L108.27,58.26,75.15,36.08a3.59,3.59,0,0,0-5.06,3.54c.76,10.24,8.39,40.07,8.47,40.23L107,118.95a8.93,8.93,0,0,1-.37,11,99.72,99.72,0,0,0-7.39,10.15l4.23-5.46q1.66-2.26,3.44-4.43l-3.44,4.43q-2,2.76-3.87,5.65A8.93,8.93,0,0,1,89.28,144l-46-15L3.43,130.55a3.59,3.59,0,0,0-2,5.84c6.63,7.84,30.35,27.49,30.5,27.57l46,14.93A8.93,8.93,0,0,1,84,188a99.72,99.72,0,0,0,0,12.56l.22-6.9c0-1.87.06-3.74.18-5.61l-.18,5.61c0,2.28,0,4.57.19,6.84a8.93,8.93,0,0,1-6.14,9.07l-46,14.95L.94,249.13A3.59,3.59,0,0,0,2.74,255c10,2.45,40.71,4.4,40.88,4.37l46-14.93a8.93,8.93,0,0,1,10.3,3.74,99.71,99.71,0,0,0,7.37,10.16l-3.88-5.71c-1.09-1.52-2.15-3.06-3.15-4.64l3.15,4.64q2,2.78,4.18,5.43a8.93,8.93,0,0,1,.37,10.95L79.48,308.17,68.62,346.53a3.59,3.59,0,0,0,4.93,3.72c9.51-3.88,35.52-20.37,35.64-20.49l28.4-39.1a8.93,8.93,0,0,1,10.53-3,99.75,99.75,0,0,0,11.94,3.89l-6.5-2.34c-1.77-.59-3.54-1.21-5.28-1.9l5.28,1.9c2.17.72,4.36,1.37,6.57,1.93a8.93,8.93,0,0,1,6.73,8.64v48.38l13.75,37.41a3.59,3.59,0,0,0,6.18.11c5.41-8.73,16.76-37.36,16.79-37.53V299.8a8.93,8.93,0,0,1,6.74-8.64,99.75,99.75,0,0,0,11.94-3.87l-6.63,1.93c-1.78.57-3.57,1.1-5.38,1.56l5.38-1.56q3.27-1,6.45-2.3a8.93,8.93,0,0,1,10.52,3l28.43,39.14,33.12,22.18a3.59,3.59,0,0,0,5.06-3.54c-.76-10.24-8.39-40.07-8.47-40.23l-28.41-39.1a8.93,8.93,0,0,1,.37-11,99.72,99.72,0,0,0,7.39-10.15l-4.23,5.46q-1.66,2.26-3.44,4.43l3.44-4.43q2-2.76,3.87-5.65a8.93,8.93,0,0,1,10.3-3.73l46,15,39.83-1.52a3.59,3.59,0,0,0,2-5.84c-6.63-7.84-30.35-27.49-30.5-27.57l-15.12-4.91H246.82A66.59,66.59,0,0,1,184.66,261.2Z"/><line class="cls-2" x1="405.47" y1="290.36" x2="1315.47" y2="290.36"/><path class="cls-3" d="M183.08,179.12H416.82a0,0,0,0,1,0,0v30.13a0,0,0,0,1,0,0H183.08A15.06,15.06,0,0,1,168,194.19v0A15.06,15.06,0,0,1,183.08,179.12Z"/><text class="cls-4" transform="matrix(0.99, 0, -0.14, 0.99, 370.5, 248.93)">GiddyUp</text><text class="cls-5" transform="matrix(0.99, 0, -0.14, 0.99, 382.3, 438.73)">web design</text></g></g></svg>