<svg xmlns="http://www.w3.org/2000/svg" viewBox="0 0 1413 1413"><defs><style>.cls-1{fill:#fff;}.cls-2{fill:#344857;}.cls-3,.cls-4{fill:#aa5c27;}.cls-4{font-size:242.61px;stroke:#aa5c27;stroke-miterlimit:10;stroke-width:3px;font-family:Corbel, Corbel;}</style></defs><title>Asset 11</title><g id="Layer_2" data-name="Layer 2"><g id="Layer_1-2" data-name="Layer 1"><circle class="cls-1" cx="706.5" cy="706.5" r="706.5"/><path class="cls-2" d="M1044.77,618.85l-48.55-15.77a18.68,18.68,0,0,0-5.77-.91H843a130.8,130.8,0,1,1,3.23-92.34H986.79a18.68,18.68,0,0,0,5.77-.91l51.88-16.86A38.61,38.61,0,0,0,1071,455.38a38.09,38.09,0,0,0-1.87-11.81,38.58,38.58,0,0,0-48.48-24.7l-95.5,31a18.61,18.61,0,0,1-21.43-7.59,211.46,211.46,0,0,0-16-21.85,18.62,18.62,0,0,1-.73-22.89l58.92-81.09a38.58,38.58,0,0,0-8.52-53.74,38.59,38.59,0,0,0-53.74,8.51l-59.23,81.52a18.62,18.62,0,0,1-21.81,6.46A209.44,209.44,0,0,0,777,351.08a18.62,18.62,0,0,1-14-18.09V232.39a38.59,38.59,0,0,0-39.73-38.46c-20.87.68-37.22,18.28-37.22,39.16V333.64a18.61,18.61,0,0,1-13.82,18A209.25,209.25,0,0,0,646.91,360a18.63,18.63,0,0,1-22-6.38l-59.41-81.77a38.47,38.47,0,0,0-62.25,45.23L563,399.38a18.62,18.62,0,0,1-.61,22.75A211.6,211.6,0,0,0,547,443.52a18.62,18.62,0,0,1-21.51,7.71L429,419.88A38.09,38.09,0,0,0,417.16,418a38.47,38.47,0,0,0-12,75l96.86,31.48a18.64,18.64,0,0,1,12.87,18.79q-.37,6.28-.37,12.66,0,6.88.43,13.65a18.62,18.62,0,0,1-12.87,18.84l-96.59,31.39a38.62,38.62,0,0,0-26.57,36.67,38.09,38.09,0,0,0,1.87,11.81A38.58,38.58,0,0,0,429.3,693L526,661.61a18.62,18.62,0,0,1,21.47,7.64A211.63,211.63,0,0,0,563,690.6a18.63,18.63,0,0,1,.67,22.82l-59.59,82a38.58,38.58,0,0,0,8.52,53.73,38.59,38.59,0,0,0,53.74-8.51l59.52-81.93a18.63,18.63,0,0,1,21.93-6.41,209,209,0,0,0,25.32,8.25A18.61,18.61,0,0,1,687,778.63v100.9A38.59,38.59,0,0,0,726.77,918C747.64,917.3,764,899.7,764,878.82V778.74a18.61,18.61,0,0,1,14-18.07,209,209,0,0,0,25.61-8.3,18.62,18.62,0,0,1,21.9,6.42l59,81.24a38.47,38.47,0,1,0,62.25-45.23l-59-81.27a18.62,18.62,0,0,1,.66-22.81,211.81,211.81,0,0,0,16-22,18.61,18.61,0,0,1,21.49-7.67L1021,692a38.09,38.09,0,0,0,11.81,1.87,38.47,38.47,0,0,0,12-75Z"/><rect class="cls-3" x="714.62" y="520.94" width="484.77" height="69.25" rx="12" ry="12"/><text class="cls-4" transform="matrix(0.99, 0, -0.14, 0.99, 270.68, 1169.4)">GiddyUp</text></g></g></svg>