<svg xmlns="http://www.w3.org/2000/svg" viewBox="0 0 1413 1413"><defs><style>.cls-1{fill:#fff;}.cls-2{fill:#344857;}.cls-3,.cls-4{fill:#aa5c27;}.cls-4{font-size:242.61px;stroke:#aa5c27;stroke-miterlimit:10;stroke-width:3px;font-family:Corbel, Corbel;}</style></defs><title>GiddyUp</title><g id="Layer_2" data-name="Layer 2"><g id="Layer_1-2" data-name="Layer 1"><circle class="cls-1" cx="706.5" cy="706.5" r="706.5"/><path class="cls-2" d="M1088.15,629.52l-56.79-18.45a21.85,21.85,0,0,0-6.75-1.07H852.2A153,153,0,1,1,856,502h164.35a21.85,21.85,0,0,0,6.75-1.07l60.68-19.72a45.16,45.16,0,0,0,31.08-42.89,44.55,44.55,0,0,0-2.19-13.81,45.13,45.13,0,0,0-56.7-28.89l-111.7,36.3A21.77,21.77,0,0,1,923.19,423a247.33,247.33,0,0,0-18.77-25.56,21.78,21.78,0,0,1-.85-26.78l68.91-94.85a45.13,45.13,0,0,0-10-62.85A45.14,45.14,0,0,0,899.66,223l-69.27,95.35a21.78,21.78,0,0,1-25.51,7.55,245,245,0,0,0-30-9.54,21.77,21.77,0,0,1-16.42-21.16V177.5a45.14,45.14,0,0,0-46.47-45c-24.41.79-43.53,21.38-43.53,45.8v117.6A21.77,21.77,0,0,1,652.33,317a244.74,244.74,0,0,0-29.53,9.76,21.79,21.79,0,0,1-25.74-7.46l-69.49-95.64a45,45,0,0,0-72.81,52.9l69.92,96.23a21.78,21.78,0,0,1-.71,26.61,247.5,247.5,0,0,0-18.05,25,21.78,21.78,0,0,1-25.16,9L367.9,396.8a44.56,44.56,0,0,0-13.81-2.19,45,45,0,0,0-14,87.78l113.29,36.82a21.8,21.8,0,0,1,15.06,22Q468,548.54,468,556q0,8,.51,16a21.77,21.77,0,0,1-15.06,22l-113,36.71a45.17,45.17,0,0,0-31.08,42.89,44.55,44.55,0,0,0,2.19,13.81,45.13,45.13,0,0,0,56.7,28.89l113.11-36.75a21.78,21.78,0,0,1,25.11,8.94,247.53,247.53,0,0,0,18.18,25,21.79,21.79,0,0,1,.78,26.69l-69.7,95.92a45.13,45.13,0,0,0,10,62.85,45.14,45.14,0,0,0,62.86-9.95l69.62-95.82a21.79,21.79,0,0,1,25.64-7.5,244.43,244.43,0,0,0,29.62,9.64,21.77,21.77,0,0,1,16.28,21.12v118a45.14,45.14,0,0,0,46.47,45c24.41-.79,43.53-21.38,43.53-45.8V816.53a21.77,21.77,0,0,1,16.32-21.14,244.39,244.39,0,0,0,30-9.71,21.78,21.78,0,0,1,25.62,7.51l69,95a45,45,0,1,0,72.81-52.9l-69.06-95.05a21.78,21.78,0,0,1,.78-26.68,247.74,247.74,0,0,0,18.67-25.68,21.77,21.77,0,0,1,25.13-9l111.34,36.18a44.55,44.55,0,0,0,13.81,2.19,45,45,0,0,0,14-87.78Z"/><rect class="cls-3" x="702" y="515" width="567" height="81" rx="12" ry="12"/><text class="cls-4" transform="matrix(0.99, 0, -0.14, 0.99, 270.68, 1196.4)">GiddyUp</text></g></g></svg>